<?xml version="1.0" encoding="utf-8"?>
<!-- Generator: Adobe Illustrator 22.1.0, SVG Export Plug-In . SVG Version: 6.00 Build 0)  -->
<svg version="1.1" id="Layer_1" xmlns="http://www.w3.org/2000/svg" xmlns:xlink="http://www.w3.org/1999/xlink" x="0px" y="0px"
	 viewBox="0 0 1080 1080" style="enable-background:new 0 0 1080 1080;" xml:space="preserve">
<style type="text/css">
	.st0{fill:#FFFFFF;stroke:#C1272D;stroke-width:50;stroke-miterlimit:10;}
	.st1{fill:#C1272D;}
</style>
<circle class="st0" cx="540" cy="540" r="479.5"/>
<g>
	<g>
		<path class="st1" d="M225.4,682.3l30.9-35.5c29.3,30.3,69.9,50.3,112.1,50.3c53.3,0,84.9-26.6,84.9-66c0-41.5-29.4-54.7-67.8-71.5
			l-58.4-25.7c-37.9-16.2-82.3-44.9-82.3-104.6c0-62.1,54.1-107.8,127.9-107.8c48.2,0,91.1,20.9,119.6,50.3L465,405
			c-24.9-23.5-54.7-38.1-92.2-38.1c-45.6,0-75.7,23-75.7,59.3c0,39.1,35.4,53.8,67.2,67.2l57.9,25.1c47,20.2,83.7,48.2,83.7,108.6
			c0,64.2-53,115.5-138.4,115.5C310.5,742.6,260.9,719.4,225.4,682.3z"/>
		<path class="st1" d="M561.6,532.4c0-131,77.2-210.9,180.3-210.9c49.3,0,88,24,111.7,50.1l-28.3,33.7
			c-21.4-22.8-48.2-38.3-82.5-38.3C666,366.9,615,429.8,615,531c0,102.1,48.7,166.1,125.8,166.1c38.8,0,68.2-16.9,94.2-45.6
			l28.3,32.4c-32.1,37.3-71.9,58.6-124.6,58.6C637.4,742.6,561.6,664.4,561.6,532.4z"/>
	</g>
</g>
</svg>
